<mxfile host="app.diagrams.net" modified="2021-01-14T07:10:31.117Z" agent="5.0 (Windows NT 10.0; WOW64) AppleWebKit/537.36 (KHTML, like Gecko) Chrome/75.0.3770.100 Safari/537.36" etag="ClThUkcsY9Jjw_Bqom-A" version="14.1.4" type="github">
  <diagram id="C5RBs43oDa-KdzZeNtuy" name="Page-1">
    <mxGraphModel dx="990" dy="564" grid="1" gridSize="10" guides="1" tooltips="1" connect="1" arrows="1" fold="1" page="1" pageScale="1" pageWidth="827" pageHeight="1169" math="0" shadow="0">
      <root>
        <mxCell id="WIyWlLk6GJQsqaUBKTNV-0" />
        <mxCell id="WIyWlLk6GJQsqaUBKTNV-1" parent="WIyWlLk6GJQsqaUBKTNV-0" />
        <mxCell id="Dj2M7m-YlJwB_Q1XWxw9-22" value="" style="rounded=1;whiteSpace=wrap;html=1;absoluteArcSize=1;arcSize=14;strokeWidth=2;fillColor=#ffffff;" vertex="1" parent="WIyWlLk6GJQsqaUBKTNV-1">
          <mxGeometry x="80" y="480" width="540" height="440" as="geometry" />
        </mxCell>
        <mxCell id="Dj2M7m-YlJwB_Q1XWxw9-12" style="edgeStyle=orthogonalEdgeStyle;rounded=0;orthogonalLoop=1;jettySize=auto;html=1;exitX=0.5;exitY=0;exitDx=0;exitDy=0;" edge="1" parent="WIyWlLk6GJQsqaUBKTNV-1" source="Dj2M7m-YlJwB_Q1XWxw9-3" target="Dj2M7m-YlJwB_Q1XWxw9-5">
          <mxGeometry relative="1" as="geometry" />
        </mxCell>
        <mxCell id="Dj2M7m-YlJwB_Q1XWxw9-3" value="阿里服务器安全组：8007" style="rounded=0;whiteSpace=wrap;html=1;" vertex="1" parent="WIyWlLk6GJQsqaUBKTNV-1">
          <mxGeometry x="125" y="740" width="450" height="60" as="geometry" />
        </mxCell>
        <mxCell id="Dj2M7m-YlJwB_Q1XWxw9-10" style="edgeStyle=orthogonalEdgeStyle;rounded=0;orthogonalLoop=1;jettySize=auto;html=1;exitX=0.5;exitY=0;exitDx=0;exitDy=0;entryX=0.5;entryY=1;entryDx=0;entryDy=0;" edge="1" parent="WIyWlLk6GJQsqaUBKTNV-1" source="Dj2M7m-YlJwB_Q1XWxw9-4" target="Dj2M7m-YlJwB_Q1XWxw9-3">
          <mxGeometry relative="1" as="geometry" />
        </mxCell>
        <mxCell id="Dj2M7m-YlJwB_Q1XWxw9-4" value="外网" style="rounded=0;whiteSpace=wrap;html=1;" vertex="1" parent="WIyWlLk6GJQsqaUBKTNV-1">
          <mxGeometry x="125" y="850" width="450" height="60" as="geometry" />
        </mxCell>
        <mxCell id="Dj2M7m-YlJwB_Q1XWxw9-8" style="edgeStyle=orthogonalEdgeStyle;rounded=0;orthogonalLoop=1;jettySize=auto;html=1;exitX=0.5;exitY=0;exitDx=0;exitDy=0;entryX=0.5;entryY=1;entryDx=0;entryDy=0;" edge="1" parent="WIyWlLk6GJQsqaUBKTNV-1" source="Dj2M7m-YlJwB_Q1XWxw9-5" target="Dj2M7m-YlJwB_Q1XWxw9-6">
          <mxGeometry relative="1" as="geometry" />
        </mxCell>
        <mxCell id="Dj2M7m-YlJwB_Q1XWxw9-13" value="&amp;nbsp; &amp;nbsp; -p 8007:80&amp;nbsp; &amp;nbsp; &amp;nbsp;&amp;nbsp;" style="edgeLabel;html=1;align=center;verticalAlign=middle;resizable=0;points=[];" vertex="1" connectable="0" parent="Dj2M7m-YlJwB_Q1XWxw9-8">
          <mxGeometry x="0.0576" y="-3" relative="1" as="geometry">
            <mxPoint as="offset" />
          </mxGeometry>
        </mxCell>
        <mxCell id="Dj2M7m-YlJwB_Q1XWxw9-19" style="edgeStyle=orthogonalEdgeStyle;rounded=0;orthogonalLoop=1;jettySize=auto;html=1;exitX=0.5;exitY=0;exitDx=0;exitDy=0;entryX=0.5;entryY=1;entryDx=0;entryDy=0;" edge="1" parent="WIyWlLk6GJQsqaUBKTNV-1" source="Dj2M7m-YlJwB_Q1XWxw9-5" target="Dj2M7m-YlJwB_Q1XWxw9-17">
          <mxGeometry relative="1" as="geometry" />
        </mxCell>
        <mxCell id="Dj2M7m-YlJwB_Q1XWxw9-5" value="防火墙：8007" style="rounded=0;whiteSpace=wrap;html=1;" vertex="1" parent="WIyWlLk6GJQsqaUBKTNV-1">
          <mxGeometry x="230" y="680" width="240" height="40" as="geometry" />
        </mxCell>
        <mxCell id="Dj2M7m-YlJwB_Q1XWxw9-6" value="nginx01" style="shape=process;whiteSpace=wrap;html=1;backgroundOutline=1;" vertex="1" parent="WIyWlLk6GJQsqaUBKTNV-1">
          <mxGeometry x="125" y="510" width="200" height="120" as="geometry" />
        </mxCell>
        <mxCell id="Dj2M7m-YlJwB_Q1XWxw9-7" value="防火墙：80端口" style="rounded=0;whiteSpace=wrap;html=1;" vertex="1" parent="WIyWlLk6GJQsqaUBKTNV-1">
          <mxGeometry x="165" y="590" width="120" height="30" as="geometry" />
        </mxCell>
        <mxCell id="Dj2M7m-YlJwB_Q1XWxw9-17" value="nginx02" style="shape=process;whiteSpace=wrap;html=1;backgroundOutline=1;" vertex="1" parent="WIyWlLk6GJQsqaUBKTNV-1">
          <mxGeometry x="370" y="510" width="200" height="120" as="geometry" />
        </mxCell>
        <mxCell id="Dj2M7m-YlJwB_Q1XWxw9-18" value="防火墙：80端口" style="rounded=0;whiteSpace=wrap;html=1;" vertex="1" parent="WIyWlLk6GJQsqaUBKTNV-1">
          <mxGeometry x="410" y="590" width="120" height="30" as="geometry" />
        </mxCell>
        <mxCell id="Dj2M7m-YlJwB_Q1XWxw9-20" value="" style="whiteSpace=wrap;html=1;aspect=fixed;fillColor=#ffffff;" vertex="1" parent="WIyWlLk6GJQsqaUBKTNV-1">
          <mxGeometry x="380" y="640" width="80" height="80" as="geometry" />
        </mxCell>
      </root>
    </mxGraphModel>
  </diagram>
</mxfile>
